<svg width="130" height="94" viewBox="0 0 130 94" fill="none" xmlns="http://www.w3.org/2000/svg">
<path d="M62.288 43.808C57.824 51.8 49.184 51.224 37.592 46.04L24.56 39.704C23.84 39.344 23.12 39.056 22.4 38.696C21.104 38.048 20.816 36.752 20.744 34.52C20.744 34.52 20.744 30.992 20.744 26.528H20.816C20.816 18.536 20.816 9.10402 20.816 9.03202C20.744 7.30402 19.448 6.94402 19.448 6.94402H21.824C22.328 6.94402 22.616 6.72802 22.616 6.51202C22.616 6.22402 22.184 6.00802 21.68 6.00802H14.264C13.976 6.00802 13.832 6.00802 13.688 6.00802C3.75199 6.44002 -1.00001 12.128 0.655994 19.112C0.799993 19.472 1.15999 19.256 1.15999 18.968C0.511993 12.56 4.83199 8.16802 12.248 7.80802C12.752 7.80802 13.688 7.73602 14.552 7.73602H16.496C16.856 8.16802 17.072 8.74402 17.072 9.53602C17.072 9.53602 17.072 12.704 17.072 16.88C17.072 23.936 17.072 33.944 17.072 37.04C12.464 36.248 9.07999 37.76 7.92799 42.224C7.85599 42.728 8.28799 42.872 8.43199 42.368C9.00799 40.856 12.176 37.4 21.392 42.152L35.72 49.496C51.488 57.488 59.912 50.864 62.72 44.096C63.008 43.52 62.432 43.448 62.288 43.808Z" fill="#ECAF2B"/>
<path d="M41.8209 40.208C40.0929 40.064 38.5809 39.632 38.5809 37.544C38.5809 37.544 38.5809 9.17602 38.5809 9.03202C38.5089 7.30402 37.2129 6.94402 37.2129 6.94402H39.5889C40.0929 6.94402 40.3809 6.72802 40.3809 6.51202C40.3809 6.22402 39.9489 6.00802 39.4449 6.00802H32.0289C31.4529 6.00802 31.0929 6.00802 31.0929 6.29602C31.0929 6.58402 31.2369 6.80002 31.5969 6.80002C33.3249 6.80002 34.8369 7.59202 34.8369 9.53602C34.8369 9.53602 34.8369 37.976 34.8369 38.048C34.9809 39.776 36.2049 40.064 36.2049 40.064H33.8289C33.3249 40.064 33.0369 40.352 33.0369 40.568C33.0369 40.856 33.3249 41 33.9729 41H41.3889C41.8929 41 42.3249 41 42.3249 40.64C42.3249 40.424 42.1809 40.208 41.8209 40.208Z" fill="#ECAF2B"/>
<path d="M81.7364 40.136C79.0004 39.848 77.7044 37.616 76.4084 34.736L64.1684 6.36802C64.0244 5.86402 63.5204 5.86402 63.3764 6.44002C62.5844 8.81602 61.4324 11.264 61.4324 11.264L51.7124 34.736C50.4884 37.4 48.8324 40.28 45.4484 40.28C45.2324 40.28 44.9444 40.352 44.9444 40.64C44.9444 40.928 45.3044 41.072 45.9524 41.072H54.3764C55.0244 41.072 55.3124 41.072 55.3124 40.712C55.3124 40.496 55.1684 40.28 54.8084 40.28C53.4404 40.28 52.8644 40.064 53.0804 38.624C53.1524 36.392 54.8084 33.08 55.6004 31.208H68.9204L68.4164 29.912H56.1764L63.6644 11.48C63.6644 11.48 73.3124 37.832 73.6004 38.336C74.3924 39.92 75.1844 40.208 75.1844 40.208H72.5204C72.0884 40.208 72.0164 40.424 72.0164 40.64C72.0164 41 72.3764 41.072 72.9524 41.072H82.0244C82.8164 41.072 83.1044 41.072 83.1044 40.64C83.1044 40.208 82.0964 40.208 81.7364 40.136Z" fill="#ECAF2B"/>
<path d="M20.632 58.08H8.32001C7.74401 58.08 7.38401 58.08 7.38401 58.44C7.38401 58.656 7.52801 58.872 7.88801 58.872H8.46401C9.54401 59.016 11.128 59.592 11.128 61.536C11.128 61.536 11.128 74.64 11.128 84.36C11.272 86.16 12.496 86.448 12.496 86.448H9.83201C9.54401 86.448 9.32801 86.664 9.32801 86.88C9.32801 87.168 9.68801 87.384 10.264 87.384L17.68 87.456C18.184 87.456 18.616 87.456 18.616 87.024C18.616 86.88 18.472 86.664 18.04 86.664L17.464 86.592C16.456 86.52 14.8 85.944 14.8 83.928C14.8 61.896 14.8 83.928 14.8 61.896C14.8 60.096 13.504 59.808 13.504 59.808H20.56C28.768 59.808 35.248 66.216 35.248 75.576C35.248 85.008 28.84 91.344 20.704 91.416H17.248C9.83201 91.056 5.51201 86.448 6.16001 80.04C6.16001 79.824 5.80001 79.536 5.72801 79.896C4.00001 86.952 8.75201 92.64 18.688 93H20.704C31 93 39.352 85.872 39.352 75.576C39.352 65.28 31 58.152 20.632 58.08Z" fill="#ECAF2B"/>
<path d="M75.838 92.136C73.102 91.848 71.806 89.616 70.51 86.736L58.27 58.368C58.126 57.864 57.622 57.864 57.478 58.44C56.686 60.816 55.534 63.264 55.534 63.264L45.814 86.736C44.59 89.4 42.934 92.28 39.55 92.28C39.334 92.28 39.046 92.352 39.046 92.64C39.046 92.928 39.406 93.072 40.054 93.072H48.478C49.126 93.072 49.414 93.072 49.414 92.712C49.414 92.496 49.27 92.28 48.91 92.28C47.542 92.28 46.966 92.064 47.182 90.624C47.254 88.392 48.91 85.08 49.702 83.208H63.022L62.518 81.912H50.278L57.766 63.48C57.766 63.48 67.414 89.832 67.702 90.336C68.494 91.92 69.286 92.208 69.286 92.208H66.622C66.19 92.208 66.118 92.424 66.118 92.64C66.118 93 66.478 93.072 67.054 93.072H76.126C76.918 93.072 77.206 93.072 77.206 92.64C77.206 92.208 76.198 92.208 75.838 92.136Z" fill="#ECAF2B"/>
<path d="M114.781 92.28C113.053 92.064 111.541 91.632 111.541 89.544C111.541 89.544 111.541 61.176 111.541 61.032C111.469 59.304 110.173 58.944 110.173 58.944H112.621C113.053 58.944 113.341 58.728 113.341 58.512C113.341 58.224 112.981 58.008 112.477 58.008H105.565C105.061 57.936 104.629 58.08 104.629 58.368C104.629 58.656 104.773 58.872 105.205 58.872C106.861 58.872 108.445 59.592 108.445 61.536V89.4C101.677 82.704 82.957 58.224 82.957 58.224C82.309 57.216 81.589 57.576 81.877 58.584C81.877 58.584 82.093 60.24 82.165 63.552C82.165 63.552 82.165 89.976 82.165 90.048C82.309 91.776 83.533 92.064 83.533 92.064H80.581C79.717 92.064 79.645 92.352 79.645 92.568C79.645 92.856 80.005 93 80.581 93H88.141C88.645 93 89.077 93 89.077 92.64C89.077 92.424 88.933 92.208 88.501 92.208C86.845 92.064 85.261 91.632 85.261 89.544V68.016L104.197 89.76C107.941 93.432 110.749 93.072 112.477 93.072H114.709C115.141 93.072 115.285 92.928 115.285 92.64C115.285 92.568 115.213 92.28 114.781 92.28Z" fill="#ECAF2B"/>
<path d="M128.594 92.208C126.866 92.064 125.354 91.632 125.354 89.544C125.354 89.544 125.354 61.176 125.354 61.032C125.282 59.304 123.986 58.944 123.986 58.944H126.362C126.866 58.944 127.154 58.728 127.154 58.512C127.154 58.224 126.722 58.008 126.218 58.008H118.802C118.226 58.008 117.866 58.008 117.866 58.296C117.866 58.584 118.01 58.8 118.37 58.8C120.098 58.8 121.61 59.592 121.61 61.536C121.61 61.536 121.61 89.976 121.61 90.048C121.754 91.776 122.978 92.064 122.978 92.064H120.602C120.098 92.064 119.81 92.352 119.81 92.568C119.81 92.856 120.098 93 120.746 93H128.162C128.666 93 129.098 93 129.098 92.64C129.098 92.424 128.954 92.208 128.594 92.208Z" fill="#ECAF2B"/>
<path d="M118.816 24.872C119.248 27.68 119.104 30.704 117.952 33.368C113.128 29.408 110.032 26.456 107.656 24.296C101.752 19.04 98.656 15.368 98.656 10.688C98.656 6.00801 101.824 2.55201 106.504 2.55201C110.104 2.55201 114.568 5.93601 114.568 9.96801C114.568 10.616 114.64 10.904 114.928 10.904C115.216 10.904 115.504 10.688 115.504 9.96801V1.68801C115.504 1.11201 115.36 0.752014 115 0.752014C114.784 0.752014 114.568 0.824014 114.568 1.18401V3.05602C112.192 1.83201 109.384 0.96801 106.216 0.896011C99.16 0.896011 94.696 5.07201 94.696 10.688C94.696 13.568 95.416 16.016 96.784 18.248C92.896 20.264 89.944 23.576 89.944 28.76C89.944 37.256 96.208 42.08 107.368 42.08C111.76 42.08 115.36 40.64 117.88 38.12C122.704 42.008 123.208 45.968 119.464 52.808C119.176 53.384 119.536 54.032 120.112 53.528C129.4 46.112 123.208 37.904 120.112 35.24C121.768 32.288 122.488 28.616 122.056 24.584C121.768 21.2 123.64 20.48 124.648 20.408H125.296C125.728 20.408 125.8 20.192 125.8 19.904C125.8 19.616 125.368 19.544 124.864 19.616C123.64 19.688 118.312 19.688 117.448 19.616C116.872 19.616 116.584 19.76 116.512 20.12C116.512 20.264 116.584 20.48 116.8 20.552H119.68C119.536 20.552 118.168 21.128 118.816 24.872ZM107.368 40.424C98.872 40.424 94.12 35.6 94.12 28.76C94.12 25.304 95.128 22.064 97.792 19.616C99.448 21.992 101.968 24.368 104.992 27.104C107.944 29.84 111.112 32.648 115.936 36.608C113.92 38.84 111.04 40.424 107.368 40.424Z" fill="#ECAF2B"/>
</svg>
