<svg width="319" height="243" viewBox="0 0 319 243" fill="none" xmlns="http://www.w3.org/2000/svg">
<path d="M38.7762 1.15829H7.47607C6.01174 1.15829 5.09653 1.15829 5.09653 2.0735C5.09653 2.62262 5.46261 3.17175 6.37782 3.17175H7.84216C10.5878 3.53783 14.6147 5.00217 14.6147 9.94429C14.6147 9.94429 14.6147 43.2579 14.6147 67.9685C14.9808 72.5446 18.0925 73.2767 18.0925 73.2767H11.3199C10.5878 73.2767 10.0387 73.8259 10.0387 74.375C10.0387 75.1072 10.9539 75.6563 12.4182 75.6563L31.2715 75.8393C32.5528 75.8393 33.651 75.8393 33.651 74.7411C33.651 74.375 33.285 73.8258 32.1867 73.8258L30.7224 73.6428C28.1598 73.4598 23.9498 71.9954 23.9498 66.8703C23.9498 10.8595 23.9498 66.8703 23.9498 10.8595C23.9498 6.28346 20.6551 5.55129 20.6551 5.55129H38.5932C59.4599 5.55129 75.9337 21.842 75.9337 45.6374C75.9337 69.6159 59.643 85.7236 38.9592 85.9066H30.1732C11.3199 84.9914 0.337446 73.2767 1.98482 56.986C1.98482 56.4369 1.06961 55.7047 0.886571 56.6199C-3.50643 74.558 8.57432 89.0183 33.8341 89.9335H38.9592C65.1342 89.9335 86.3671 71.8124 86.3671 45.6374C86.3671 19.4625 65.1342 1.34133 38.7762 1.15829Z" fill="#FFC42D"/>
<path d="M179.123 87.737C172.168 87.0049 168.873 81.3306 165.578 74.0089L134.461 1.89046C134.095 0.609164 132.814 0.609162 132.448 2.0735C130.434 8.11387 127.506 14.3373 127.506 14.3373L102.795 74.0089C99.6833 80.7814 95.4734 88.1031 86.8704 88.1031C86.3213 88.1031 85.5891 88.2861 85.5891 89.0183C85.5891 89.7505 86.5043 90.1166 88.1517 90.1166H109.568C111.215 90.1166 111.947 90.1166 111.947 89.2014C111.947 88.6522 111.581 88.1031 110.666 88.1031C107.188 88.1031 105.724 87.554 106.273 83.8932C106.456 78.2189 110.666 69.7989 112.679 65.0399H146.542L145.261 61.7451H114.144L133.18 14.8864C133.18 14.8864 157.708 81.8797 158.44 83.161C160.453 87.1879 162.467 87.9201 162.467 87.9201H155.694C154.596 87.9201 154.413 88.4692 154.413 89.0183C154.413 89.9335 155.328 90.1166 156.792 90.1166H179.856C181.869 90.1166 182.601 90.1166 182.601 89.0183C182.601 87.9201 180.039 87.9201 179.123 87.737Z" fill="#FFC42D"/>
<path d="M278.126 88.1031C273.733 87.554 269.889 86.4557 269.889 81.1475C269.889 81.1475 269.889 9.02908 269.889 8.663C269.706 4.27 266.411 3.35479 266.411 3.35479H272.635C273.733 3.35479 274.465 2.80567 274.465 2.25654C274.465 1.52437 273.55 0.975246 272.269 0.975246H254.697C253.416 0.792207 252.317 1.15829 252.317 1.89046C252.317 2.62262 252.683 3.17175 253.782 3.17175C257.992 3.17175 262.018 5.00217 262.018 9.94429V80.7814C244.813 63.7586 197.222 1.52438 197.222 1.52438C195.574 -1.03821 193.744 -0.122999 194.476 2.43959C194.476 2.43959 195.025 6.64955 195.208 15.0695C195.208 15.0695 195.208 82.2458 195.208 82.4288C195.574 86.8218 198.686 87.554 198.686 87.554H191.181C188.985 87.554 188.802 88.2862 188.802 88.8353C188.802 89.5674 189.717 89.9335 191.181 89.9335H210.401C211.682 89.9335 212.78 89.9335 212.78 89.0183C212.78 88.4692 212.414 87.9201 211.316 87.9201C207.106 87.554 203.079 86.4557 203.079 81.1475V26.418L251.219 81.6966C260.737 91.0318 267.876 90.1166 272.269 90.1166H277.943C279.041 90.1166 279.407 89.7505 279.407 89.0183C279.407 88.8353 279.224 88.1031 278.126 88.1031Z" fill="#FFC42D"/>
<path d="M313.243 87.9201C308.85 87.554 305.006 86.4557 305.006 81.1475C305.006 81.1475 305.006 9.02908 305.006 8.663C304.823 4.27 301.528 3.35479 301.528 3.35479H307.569C308.85 3.35479 309.582 2.80567 309.582 2.25654C309.582 1.52437 308.484 0.975246 307.203 0.975246H288.349C286.885 0.975246 285.97 0.975245 285.97 1.70741C285.97 2.43958 286.336 2.98871 287.251 2.98871C291.644 2.98871 295.488 5.00217 295.488 9.94429C295.488 9.94429 295.488 82.2458 295.488 82.4288C295.854 86.8218 298.966 87.554 298.966 87.554H292.925C291.644 87.554 290.912 88.2862 290.912 88.8353C290.912 89.5674 291.644 89.9335 293.291 89.9335H312.145C313.426 89.9335 314.524 89.9335 314.524 89.0183C314.524 88.4692 314.158 87.9201 313.243 87.9201Z" fill="#FFC42D"/>
<path d="M265.433 210.202C254.084 230.52 232.119 229.055 202.649 215.876L169.519 199.769C167.688 198.854 165.858 198.121 164.028 197.206C160.733 195.559 160.001 192.264 159.818 186.59C159.818 186.59 159.818 177.621 159.818 166.272H160.001C160.001 145.955 160.001 121.976 160.001 121.793C159.818 117.4 156.523 116.485 156.523 116.485H162.563C163.845 116.485 164.577 115.936 164.577 115.387C164.577 114.654 163.478 114.105 162.197 114.105H143.344C142.612 114.105 142.246 114.105 141.88 114.105C116.62 115.204 104.539 129.664 108.749 147.419C109.115 148.334 110.03 147.785 110.03 147.053C108.383 130.762 119.365 119.597 138.219 118.681C139.5 118.681 141.88 118.498 144.076 118.498H149.018C149.933 119.597 150.482 121.061 150.482 123.074C150.482 123.074 150.482 131.128 150.482 141.745C150.482 159.683 150.482 185.125 150.482 192.996C138.768 190.983 130.165 194.827 127.236 206.175C127.053 207.457 128.151 207.823 128.517 206.541C129.982 202.697 138.036 193.911 161.465 205.992L197.89 224.662C237.976 244.98 259.392 228.14 266.531 210.934C267.263 209.47 265.799 209.287 265.433 210.202Z" fill="#FFC42D"/>
<path d="M213.4 201.05C209.007 200.684 205.163 199.586 205.163 194.278C205.163 194.278 205.163 122.159 205.163 121.793C204.98 117.4 201.686 116.485 201.686 116.485H207.726C209.007 116.485 209.739 115.936 209.739 115.387C209.739 114.654 208.641 114.105 207.36 114.105H188.507C187.042 114.105 186.127 114.105 186.127 114.837C186.127 115.57 186.493 116.119 187.408 116.119C191.801 116.119 195.645 118.132 195.645 123.074C195.645 123.074 195.645 195.376 195.645 195.559C196.011 199.952 199.123 200.684 199.123 200.684H193.083C191.801 200.684 191.069 201.416 191.069 201.965C191.069 202.697 191.801 203.064 193.449 203.064H212.302C213.583 203.064 214.681 203.064 214.681 202.148C214.681 201.599 214.315 201.05 213.4 201.05Z" fill="#FFC42D"/>
<path d="M314.875 200.867C307.92 200.135 304.625 194.461 301.33 187.139L270.213 115.02C269.847 113.739 268.566 113.739 268.2 115.204C266.186 121.244 263.258 127.467 263.258 127.467L238.547 187.139C235.435 193.911 231.225 201.233 222.622 201.233C222.073 201.233 221.341 201.416 221.341 202.148C221.341 202.881 222.256 203.247 223.904 203.247H245.32C246.967 203.247 247.699 203.247 247.699 202.331C247.699 201.782 247.333 201.233 246.418 201.233C242.94 201.233 241.476 200.684 242.025 197.023C242.208 191.349 246.418 182.929 248.431 178.17H282.294L281.013 174.875H249.896L268.932 128.016C268.932 128.016 293.46 195.01 294.192 196.291C296.205 200.318 298.219 201.05 298.219 201.05H291.446C290.348 201.05 290.165 201.599 290.165 202.148C290.165 203.064 291.08 203.247 292.544 203.247H315.608C317.621 203.247 318.353 203.247 318.353 202.148C318.353 201.05 315.791 201.05 314.875 200.867Z" fill="#FFC42D"/>
<path d="M74.8355 169.689C75.9338 176.828 75.5677 184.515 72.639 191.288C60.3752 181.221 52.5044 173.716 46.464 168.225C31.4546 154.863 23.5838 145.527 23.5838 133.63C23.5838 121.732 31.6377 112.946 43.5354 112.946C52.6875 112.946 64.0361 121.549 64.0361 131.799C64.0361 133.447 64.2191 134.179 64.9513 134.179C65.6834 134.179 66.4156 133.63 66.4156 131.799V110.749C66.4156 109.285 66.0495 108.37 65.1343 108.37C64.5852 108.37 64.0361 108.553 64.0361 109.468V114.227C57.9957 111.116 50.8571 108.919 42.8032 108.736C24.8651 108.736 13.5165 119.352 13.5165 133.63C13.5165 140.951 15.347 147.175 18.8248 152.849C8.9405 157.974 1.43579 166.394 1.43579 179.573C1.43579 201.172 17.3604 213.436 45.7319 213.436C56.8974 213.436 66.0495 209.775 72.456 203.369C84.7198 213.253 86.0011 223.32 76.4829 240.709C75.7507 242.173 76.6659 243.821 78.1303 242.54C101.743 223.686 86.0011 202.819 78.1303 196.047C82.3402 188.542 84.1706 179.207 83.0724 168.957C82.3402 160.354 87.0993 158.523 89.6619 158.34H91.3093C92.4075 158.34 92.5906 157.791 92.5906 157.059C92.5906 156.327 91.4923 156.144 90.211 156.327C87.0993 156.51 73.5542 156.51 71.3577 156.327C69.8934 156.327 69.1612 156.693 68.9782 157.608C68.9782 157.974 69.1612 158.523 69.7103 158.706H77.032C76.6659 158.706 73.1881 160.171 74.8355 169.689ZM45.7319 209.226C24.133 209.226 12.0522 196.962 12.0522 179.573C12.0522 170.787 14.6148 162.55 21.3873 156.327C25.5973 162.367 32.0038 168.408 39.6915 175.363C47.1962 182.319 55.2501 189.457 67.5138 199.525C62.3887 205.199 55.067 209.226 45.7319 209.226Z" fill="#FFC42D"/>
</svg>
