<svg width="131" height="98" viewBox="0 0 131 98" fill="none" xmlns="http://www.w3.org/2000/svg">
<path d="M109.956 85.8095C105.492 93.8015 96.8517 93.2255 85.2597 88.0415L72.2277 81.7055C71.5077 81.3455 70.7877 81.0575 70.0677 80.6975C68.7717 80.0495 68.4837 78.7535 68.4117 76.5215C68.4117 76.5215 68.4117 72.9935 68.4117 68.5295H68.4837C68.4837 60.5375 68.4837 51.1055 68.4837 51.0335C68.4117 49.3055 67.1157 48.9455 67.1157 48.9455H69.4917C69.9957 48.9455 70.2837 48.7295 70.2837 48.5134C70.2837 48.2255 69.8517 48.0094 69.3477 48.0094H61.9317C61.6437 48.0094 61.4997 48.0094 61.3557 48.0094C51.4197 48.4415 46.6677 54.1295 48.3237 61.1135C48.4677 61.4735 48.8277 61.2575 48.8277 60.9695C48.1797 54.5615 52.4997 50.1695 59.9157 49.8095C60.4197 49.8095 61.3557 49.7375 62.2197 49.7375H64.1637C64.5237 50.1695 64.7397 50.7455 64.7397 51.5375C64.7397 51.5375 64.7397 54.7055 64.7397 58.8815C64.7397 65.9375 64.7397 75.9455 64.7397 79.0415C60.1317 78.2495 56.7477 79.7615 55.5957 84.2255C55.5237 84.7295 55.9557 84.8735 56.0997 84.3695C56.6757 82.8575 59.8437 79.4015 69.0597 84.1535L83.3877 91.4975C99.1557 99.4895 107.58 92.8655 110.388 86.0975C110.676 85.5215 110.1 85.4495 109.956 85.8095Z" fill="#ECAF2B"/>
<path d="M89.4885 82.2095C87.7605 82.0655 86.2485 81.6334 86.2485 79.5455C86.2485 79.5455 86.2485 51.1775 86.2485 51.0335C86.1765 49.3055 84.8805 48.9455 84.8805 48.9455H87.2565C87.7605 48.9455 88.0485 48.7295 88.0485 48.5134C88.0485 48.2255 87.6165 48.0094 87.1125 48.0094H79.6965C79.1205 48.0094 78.7605 48.0094 78.7605 48.2975C78.7605 48.5855 78.9045 48.8015 79.2645 48.8015C80.9925 48.8015 82.5045 49.5935 82.5045 51.5375C82.5045 51.5375 82.5045 79.9775 82.5045 80.0495C82.6485 81.7775 83.8725 82.0655 83.8725 82.0655H81.4965C80.9925 82.0655 80.7045 82.3535 80.7045 82.5695C80.7045 82.8575 80.9925 83.0015 81.6405 83.0015H89.0565C89.5605 83.0015 89.9925 83.0015 89.9925 82.6415C89.9925 82.4255 89.8485 82.2095 89.4885 82.2095Z" fill="#ECAF2B"/>
<path d="M129.404 82.1375C126.668 81.8495 125.372 79.6175 124.076 76.7375L111.836 48.3695C111.692 47.8655 111.188 47.8654 111.044 48.4415C110.252 50.8175 109.1 53.2655 109.1 53.2655L99.3801 76.7375C98.1561 79.4015 96.5001 82.2815 93.1161 82.2815C92.9001 82.2815 92.6121 82.3535 92.6121 82.6415C92.6121 82.9295 92.9721 83.0735 93.6201 83.0735H102.044C102.692 83.0735 102.98 83.0735 102.98 82.7135C102.98 82.4975 102.836 82.2815 102.476 82.2815C101.108 82.2815 100.532 82.0655 100.748 80.6255C100.82 78.3935 102.476 75.0815 103.268 73.2095H116.588L116.084 71.9135H103.844L111.332 53.4815C111.332 53.4815 120.98 79.8335 121.268 80.3375C122.06 81.9215 122.852 82.2095 122.852 82.2095H120.188C119.756 82.2095 119.684 82.4255 119.684 82.6415C119.684 83.0015 120.044 83.0735 120.62 83.0735H129.692C130.484 83.0735 130.772 83.0735 130.772 82.6415C130.772 82.2095 129.764 82.2095 129.404 82.1375Z" fill="#ECAF2B"/>
<path d="M18.632 0.455616H6.32001C5.74401 0.455616 5.38401 0.455617 5.38401 0.815617C5.38401 1.03162 5.52801 1.24762 5.88801 1.24762H6.46401C7.54401 1.39162 9.12801 1.96762 9.12801 3.91162C9.12801 3.91162 9.12801 17.0156 9.12801 26.7356C9.27201 28.5356 10.496 28.8236 10.496 28.8236H7.83201C7.54401 28.8236 7.32801 29.0396 7.32801 29.2556C7.32801 29.5436 7.68801 29.7596 8.26401 29.7596L15.68 29.8316C16.184 29.8316 16.616 29.8316 16.616 29.3996C16.616 29.2556 16.472 29.0396 16.04 29.0396L15.464 28.9676C14.456 28.8956 12.8 28.3196 12.8 26.3036C12.8 4.27162 12.8 26.3036 12.8 4.27162C12.8 2.47162 11.504 2.18362 11.504 2.18362H18.56C26.768 2.18362 33.248 8.59162 33.248 17.9516C33.248 27.3836 26.84 33.7196 18.704 33.7916H15.248C7.83201 33.4316 3.51201 28.8236 4.16001 22.4156C4.16001 22.1996 3.80001 21.9116 3.72801 22.2716C2.00001 29.3276 6.75201 35.0156 16.688 35.3756H18.704C29 35.3756 37.352 28.2476 37.352 17.9516C37.352 7.65562 29 0.527615 18.632 0.455616Z" fill="#ECAF2B"/>
<path d="M73.838 34.5116C71.102 34.2236 69.806 31.9916 68.51 29.1116L56.27 0.743617C56.126 0.239617 55.622 0.239616 55.478 0.815617C54.686 3.19162 53.534 5.63962 53.534 5.63962L43.814 29.1116C42.59 31.7756 40.934 34.6556 37.55 34.6556C37.334 34.6556 37.046 34.7276 37.046 35.0156C37.046 35.3036 37.406 35.4476 38.054 35.4476H46.478C47.126 35.4476 47.414 35.4476 47.414 35.0876C47.414 34.8716 47.27 34.6556 46.91 34.6556C45.542 34.6556 44.966 34.4396 45.182 32.9996C45.254 30.7676 46.91 27.4556 47.702 25.5836H61.022L60.518 24.2876H48.278L55.766 5.85562C55.766 5.85562 65.414 32.2076 65.702 32.7116C66.494 34.2956 67.286 34.5836 67.286 34.5836H64.622C64.19 34.5836 64.118 34.7996 64.118 35.0156C64.118 35.3756 64.478 35.4476 65.054 35.4476H74.126C74.918 35.4476 75.206 35.4476 75.206 35.0156C75.206 34.5836 74.198 34.5836 73.838 34.5116Z" fill="#ECAF2B"/>
<path d="M112.781 34.6556C111.053 34.4396 109.541 34.0076 109.541 31.9196C109.541 31.9196 109.541 3.55162 109.541 3.40762C109.469 1.67962 108.173 1.31962 108.173 1.31962H110.621C111.053 1.31962 111.341 1.10362 111.341 0.887616C111.341 0.599617 110.981 0.383616 110.477 0.383616H103.565C103.061 0.311617 102.629 0.455618 102.629 0.743617C102.629 1.03162 102.773 1.24762 103.205 1.24762C104.861 1.24762 106.445 1.96762 106.445 3.91162V31.7756C99.677 25.0796 80.957 0.599617 80.957 0.599617C80.309 -0.408382 79.589 -0.0483819 79.877 0.959618C79.877 0.959618 80.093 2.61562 80.165 5.92762C80.165 5.92762 80.165 32.3516 80.165 32.4236C80.309 34.1516 81.533 34.4396 81.533 34.4396H78.581C77.717 34.4396 77.645 34.7276 77.645 34.9436C77.645 35.2316 78.005 35.3756 78.581 35.3756H86.141C86.645 35.3756 87.077 35.3756 87.077 35.0156C87.077 34.7996 86.933 34.5836 86.501 34.5836C84.845 34.4396 83.261 34.0076 83.261 31.9196V10.3916L102.197 32.1356C105.941 35.8076 108.749 35.4476 110.477 35.4476H112.709C113.141 35.4476 113.285 35.3036 113.285 35.0156C113.285 34.9436 113.213 34.6556 112.781 34.6556Z" fill="#ECAF2B"/>
<path d="M126.594 34.5836C124.866 34.4396 123.354 34.0076 123.354 31.9196C123.354 31.9196 123.354 3.55162 123.354 3.40762C123.282 1.67962 121.986 1.31962 121.986 1.31962H124.362C124.866 1.31962 125.154 1.10362 125.154 0.887616C125.154 0.599617 124.722 0.383616 124.218 0.383616H116.802C116.226 0.383616 115.866 0.383615 115.866 0.671616C115.866 0.959617 116.01 1.17562 116.37 1.17562C118.098 1.17562 119.61 1.96762 119.61 3.91162C119.61 3.91162 119.61 32.3516 119.61 32.4236C119.754 34.1516 120.978 34.4396 120.978 34.4396H118.602C118.098 34.4396 117.81 34.7276 117.81 34.9436C117.81 35.2316 118.098 35.3756 118.746 35.3756H126.162C126.666 35.3756 127.098 35.3756 127.098 35.0156C127.098 34.7996 126.954 34.5836 126.594 34.5836Z" fill="#ECAF2B"/>
<path d="M29.816 69.12C30.248 71.928 30.104 74.952 28.952 77.616C24.128 73.656 21.032 70.704 18.656 68.544C12.752 63.288 9.65597 59.616 9.65597 54.936C9.65597 50.256 12.824 46.8 17.504 46.8C21.104 46.8 25.568 50.184 25.568 54.216C25.568 54.864 25.64 55.152 25.928 55.152C26.216 55.152 26.504 54.936 26.504 54.216V45.936C26.504 45.36 26.36 45 26 45C25.784 45 25.568 45.072 25.568 45.432V47.304C23.192 46.08 20.384 45.216 17.216 45.144C10.16 45.144 5.69597 49.32 5.69597 54.936C5.69597 57.816 6.41597 60.264 7.78397 62.496C3.89597 64.512 0.94397 67.824 0.94397 73.008C0.94397 81.504 7.20797 86.328 18.368 86.328C22.76 86.328 26.36 84.888 28.88 82.368C33.704 86.256 34.208 90.216 30.464 97.056C30.176 97.632 30.536 98.28 31.112 97.776C40.4 90.36 34.208 82.152 31.112 79.488C32.768 76.536 33.488 72.864 33.056 68.832C32.768 65.448 34.64 64.728 35.648 64.656H36.296C36.728 64.656 36.8 64.44 36.8 64.152C36.8 63.864 36.368 63.792 35.864 63.864C34.64 63.936 29.312 63.936 28.448 63.864C27.872 63.864 27.584 64.008 27.512 64.368C27.512 64.512 27.584 64.728 27.8 64.8H30.68C30.536 64.8 29.168 65.376 29.816 69.12ZM18.368 84.672C9.87197 84.672 5.11997 79.848 5.11997 73.008C5.11997 69.552 6.12797 66.312 8.79197 63.864C10.448 66.24 12.968 68.616 15.992 71.352C18.944 74.088 22.112 76.896 26.936 80.856C24.92 83.088 22.04 84.672 18.368 84.672Z" fill="#ECAF2B"/>
</svg>
